<svg width="16" height="16" viewBox="0 0 16 16" fill="none" xmlns="http://www.w3.org/2000/svg">
<g clip-path="url(#clip0_303_270)">
<path d="M10.207 5.79688C10 5.79688 9.83228 5.96462 9.83228 6.17158V13.2535C9.83228 13.4604 10 13.6283 10.207 13.6283C10.4139 13.6283 10.5817 13.4604 10.5817 13.2535V6.17158C10.5817 5.96462 10.4139 5.79688 10.207 5.79688Z" fill="white"/>
<path d="M5.78547 5.79688C5.57851 5.79688 5.41077 5.96462 5.41077 6.17158V13.2535C5.41077 13.4604 5.57851 13.6283 5.78547 13.6283C5.99244 13.6283 6.16018 13.4604 6.16018 13.2535V6.17158C6.16018 5.96462 5.99244 5.79688 5.78547 5.79688Z" fill="white"/>
<path d="M2.56301 4.76335V13.9953C2.56301 14.541 2.76309 15.0534 3.11262 15.4211C3.46054 15.7898 3.94473 15.9991 4.45147 16H11.541C12.0479 15.9991 12.5321 15.7898 12.8799 15.4211C13.2294 15.0534 13.4295 14.541 13.4295 13.9953V4.76335C14.1243 4.57893 14.5745 3.90768 14.4816 3.19471C14.3885 2.48189 13.7812 1.94867 13.0622 1.94852H11.1438V1.48014C11.146 1.08626 10.9902 0.708039 10.7114 0.42979C10.4326 0.151688 10.0538 -0.0031709 9.65988 4.92333e-05H6.33261C5.93873 -0.0031709 5.55992 0.151688 5.28109 0.42979C5.00225 0.708039 4.84652 1.08626 4.84871 1.48014V1.94852H2.93025C2.21128 1.94867 1.60399 2.48189 1.5109 3.19471C1.41796 3.90768 1.86819 4.57893 2.56301 4.76335ZM11.541 15.2506H4.45147C3.81081 15.2506 3.31242 14.7002 3.31242 13.9953V4.79629H12.6801V13.9953C12.6801 14.7002 12.1817 15.2506 11.541 15.2506ZM5.59812 1.48014C5.59564 1.28503 5.67233 1.09724 5.8108 0.959502C5.94912 0.821768 6.13735 0.746095 6.33261 0.749461H9.65988C9.85514 0.746095 10.0434 0.821768 10.1817 0.959502C10.3202 1.09709 10.3969 1.28503 10.3944 1.48014V1.94852H5.59812V1.48014ZM2.93025 2.69793H13.0622C13.4348 2.69793 13.7367 2.99989 13.7367 3.3724C13.7367 3.74491 13.4348 4.04688 13.0622 4.04688H2.93025C2.55774 4.04688 2.25578 3.74491 2.25578 3.3724C2.25578 2.99989 2.55774 2.69793 2.93025 2.69793Z" fill="white"/>
<path d="M7.99617 5.79688C7.7892 5.79688 7.62146 5.96462 7.62146 6.17158V13.2535C7.62146 13.4604 7.7892 13.6283 7.99617 13.6283C8.20313 13.6283 8.37087 13.4604 8.37087 13.2535V6.17158C8.37087 5.96462 8.20313 5.79688 7.99617 5.79688Z" fill="white"/>
</g>
<defs>
<clipPath id="clip0_303_270">
<rect width="16" height="16" fill="white"/>
</clipPath>
</defs>
</svg>
